STARTFONT 2.1
COMMENT
COMMENT Converted from OpenType font "Font 90 Icons.ttf" by "otf2bdf 3.0".
COMMENT
FONT -FreeType-Font 90 Icons-Medium-R-Normal--33-240-100-100-P-124-ISO10646-1
SIZE 24 100 100
FONTBOUNDINGBOX 35 34 0 -7
STARTPROPERTIES 19
FOUNDRY "FreeType"
FAMILY_NAME "Font 90 Icons"
WEIGHT_NAME "Medium"
SLANT "R"
SETWIDTH_NAME "Normal"
ADD_STYLE_NAME ""
PIXEL_SIZE 33
POINT_SIZE 240
RESOLUTION_X 100
RESOLUTION_Y 100
SPACING "P"
AVERAGE_WIDTH 124
CHARSET_REGISTRY "ISO10646"
CHARSET_ENCODING "1"
FONT_ASCENT 27
FONT_DESCENT 6
COPYRIGHT "Typeface © (el-harrak.blogspot.com). <darrati10@gmail.com>. All Rights Reserved"
_OTF_FONTFILE "Font 90 Icons.ttf"
_OTF_PSNAME "Font 90 Icons"
ENDPROPERTIES
CHARS 242
STARTCHAR 0000
ENCODING 0
SWIDTH 0 0
DWIDTH 0 0
BBX 0 0 0 0
BITMAP
ENDCHAR
STARTCHAR 001D
ENCODING 29
SWIDTH 0 0
DWIDTH 0 0
BBX 0 0 0 0
BITMAP
ENDCHAR
STARTCHAR 0020
ENCODING 32
SWIDTH 240 0
DWIDTH 8 0
BBX 0 0 0 0
BITMAP
ENDCHAR
STARTCHAR 0021
ENCODING 33
SWIDTH 960 0
DWIDTH 32 0
BBX 32 31 0 -5
BITMAP
001FFC00
00FFE700
01FFF980
03FFFC60
07FFFE30
0FFFFE10
1FFE3E08
3FFC3F04
3FFC3F04
7FFE3E02
7FFFFE02
7FFFFE03
FFFFFC01
FFFFF801
FFFFF001
FFFF0001
FFF00001
FFE00001
FFC00001
7F800002
7F800002
7F83C002
3F83C004
3F83C004
1F81C008
0F800010
07C00030
03C00060
01E00180
00F80700
001FF800
ENDCHAR
STARTCHAR 0022
ENCODING 34
SWIDTH 960 0
DWIDTH 32 0
BBX 32 25 0 -2
BITMAP
001FF800
00180800
00100800
00100800
3FFFFFFE
7FFFFFFF
FFFFFFFF
FFFFFFFF
FFFFFFFF
FFFFFFFF
FFFFFFFF
FFFFFFFF
FFFFFFFF
FFFFFFFF
FFFFFFFF
FFFFFFFF
FFFFFFFF
FFFFFFFF
FFFFFFFF
FFFFFFFF
FFFFFFFF
FFFFFFFF
FFFFFFFF
7FFFFFFF
7FFFFFFE
ENDCHAR
STARTCHAR 0023
ENCODING 35
SWIDTH 960 0
DWIDTH 32 0
BBX 30 33 1 -7
BITMAP
00FF0000
F3FFE000
F7FFFC10
F7FFFFF0
77FFFFF0
77FFFFF0
77FFFFF0
7BFFFFF0
7BFFFFF8
3BFFFFF8
3BFFFFF8
3BFFFFF8
3DFFFFF8
3DFFFFF8
3DFFFFFC
1DF83FFC
1DC007FC
1C8001FC
1E00003C
1E000000
1E000000
0E000000
0E000000
0E000000
0F000000
0F000000
07000000
07000000
07000000
07800000
07800000
07800000
03800000
ENDCHAR
STARTCHAR 0024
ENCODING 36
SWIDTH 960 0
DWIDTH 32 0
BBX 32 31 0 -5
BITMAP
0F000000
1F800000
7FC00000
7FE00000
FFF00000
FFF80000
FFFC0000
7FFF0000
3FFF8000
1FFFC000
0FFFE000
07FFF000
03FFE000
01FFC000
00FF8000
00FF8000
007EC000
003C6000
00183000
00101800
00000C00
00000600
00000300
00000180
000000C0
00000020
00000010
00000008
00000004
00000002
00000001
ENDCHAR
STARTCHAR 0025
ENCODING 37
SWIDTH 960 0
DWIDTH 32 0
BBX 30 33 1 -6
BITMAP
00078000
000FC000
000FC000
001FF000
00FFFC00
01FFFE00
03FFFF80
7FF79FF8
FFC787FC
FF8303FC
FF8303FC
7F8307F8
3FC30FF0
3FF31FF8
3C7FF878
7C0FE078
7C0FC078
7C0FE078
3C7FF878
3FF33FF8
3FE30FF0
7FC307F8
FF8303FC
FF0383FC
FFC787FC
7FF79FF8
03FFFF80
01FFFE00
00FFFC00
003FF000
000FC000
0007C000
00078000
ENDCHAR
STARTCHAR 0026
ENCODING 38
SWIDTH 960 0
DWIDTH 32 0
BBX 32 31 0 -5
BITMAP
001FF800
007FFF00
01E00780
038001E0
060FF070
0C3FFC30
187FFF18
38FFFF8C
31FFFF8C
63FFFFC6
67DFFFE6
67EFF3E2
C7F7E7E3
C7FBCFF3
CFFD9FF3
CFFE3FF3
CFFE3FF3
C7FFFFF3
C7FFFFE3
67FFFFE6
63FFFFE6
63FFFFC6
31FFFF8C
38FFFF8C
187FFE18
0C3FFC30
060FF060
038001C0
01E00780
007FFF00
001FF800
ENDCHAR
STARTCHAR 0027
ENCODING 39
SWIDTH 960 0
DWIDTH 32 0
BBX 32 32 0 -6
BITMAP
00FF8000
03FFE000
07FFF800
0FFFFC00
1FE3FE00
3F807E00
3E0C3F00
7C1C1F00
7C1C1F80
781C0F80
F8FF8F80
F9FFCF80
F9FFCF80
F81C0F80
7C1C0F80
7C1C1F80
7E1C1F00
3F083F00
3F80FF00
1FFFFF80
0FFFFFC0
07FFFFE0
03FFFFF0
00FFBFF8
00001FFC
00000FFE
000007FF
000003FF
000001FF
000000FE
0000007E
00000018
ENDCHAR
STARTCHAR 0028
ENCODING 40
SWIDTH 960 0
DWIDTH 32 0
BBX 32 33 0 -6
BITMAP
001E0000
01FFC000
03FFF000
0FFFF800
1FFFFC00
1FC1FE00
3F007E00
7E003F00
7C001F00
7C000F80
F8000F80
F9FFCF80
F9FFCF80
F9FFCF80
F8000F80
7C000F80
7C001F80
7E001F00
3F003F00
3F80FF00
1FFFFF80
0FFFFFC0
07FFFFE0
03FFFFF0
007FBFF8
00001FFC
00000FFE
000007FF
000003FF
000001FF
000000FF
0000007E
00000008
ENDCHAR
STARTCHAR 0029
ENCODING 41
SWIDTH 960 0
DWIDTH 32 0
BBX 32 23 0 -1
BITMAP
7FFFFFFF
F0000007
F800000F
FC00001F
DE00003B
CF000073
C78000E3
C3C001C3
C1E00383
C0F00703
C0780E03
C03C1C03
C03E3E03
C07FF703
C0E7E383
C1C181C3
C38000E3
C7000073
CE00003B
DC00001F
F800000F
FFFFFFFF
7FFFFFFF
ENDCHAR
STARTCHAR 002A
ENCODING 42
SWIDTH 960 0
DWIDTH 32 0
BBX 28 34 2 -7
BITMAP
000F0000
000F0000
000F0000
000F0000
000F0000
000F0000
000F0000
000F0000
030F0C00
07CF3C00
03FFFC00
03FFF800
01FFF000
7FFFEFE0
3FFFDFC0
DFFFBFB0
EFFF7F70
F7FEFEF0
FBF9FDF0
FDFFFBF0
FEFFF7F0
FF7FEFF0
FFBFDFF0
FF9F9FF0
FFAF2FF0
FF7677F0
FEFDFBF0
FDFFFDF0
FBFFFEF0
F7FFFFF0
EFFFFFF0
DFFFFFF0
3FFFFFE0
3FFFFFC0
ENDCHAR
STARTCHAR 002B
ENCODING 43
SWIDTH 960 0
DWIDTH 32 0
BBX 32 31 0 -5
BITMAP
FFFFFFFF
FFFFFFFF
FFFFFFFF
FFFFFFFF
F01FFC0F
F03FFE0F
F07FFE0F
F01FFC0F
F00FF80F
F21FF86F
F73FFCFF
FFFFFFFF
FFFFFFFF
FFFFFFFF
FFFFFFFF
FFFFFFFF
FFFFFFFF
FFFFFFFF
FFFFFFFF
FFFFFFFF
F73FFCEF
F21FF84F
F01FF80F
F03FFC0F
F07FFE0F
F03FFC0F
F01FF80F
FFFFFFFF
FFFFFFFF
FFFFFFFF
FFFFFFFF
ENDCHAR
STARTCHAR 002C
ENCODING 44
SWIDTH 960 0
DWIDTH 32 0
BBX 32 31 0 -5
BITMAP
000003E0
00003FF0
00007FF8
0000FFFC
0001FFBE
0003FF1F
0007FF1F
000FFFBF
001FFFFE
003FFFFE
007FFFFE
00FFFFFE
01FFFFFE
03BFFFFC
079FFFF8
0ECFFFF0
1C67FFE0
3E33FFC0
FF19FF80
7F8CFF00
3FC67E00
1FE33C00
0FF1B800
07F8F000
03FCE000
01FFC000
00FF8000
007F0000
003E0000
001C0000
00080000
ENDCHAR
STARTCHAR 002D
ENCODING 45
SWIDTH 960 0
DWIDTH 32 0
BBX 32 31 0 -5
BITMAP
001FF800
007FFF00
01E00780
038001E0
070000F0
0E000030
1F000C18
39801C1C
30C01C0C
70603C06
60307C06
603FFC06
603FFC03
C03FFC03
C03FFC03
C03FFC03
C03FFC03
C03FFC03
603FFC03
6000FC06
60007C06
70003D06
30001D0C
38000D9C
1C000CD8
0E000070
070000F0
038001C0
01E00780
007FFF00
001FF800
ENDCHAR
STARTCHAR 002E
ENCODING 46
SWIDTH 960 0
DWIDTH 32 0
BBX 27 33 3 -6
BITMAP
3FFFFFC0
200000C0
200000C0
200000C0
200000C0
200000C0
200000C0
200000C0
200000C0
200000C0
200000C0
200000C0
200000C0
200000C0
200000C0
200000C0
3FFFFFC0
00000000
3FFFFF80
3FFFFFC0
3FFFFFC0
3FFF83C0
3FFFFFC0
3FFFFFC0
3FFFFFC0
00040000
00040000
00040000
00040000
00FFC000
00FFE000
FFFFFFE0
FFFFFFE0
ENDCHAR
STARTCHAR 002F
ENCODING 47
SWIDTH 960 0
DWIDTH 32 0
BBX 32 33 0 -6
BITMAP
0003C000
180FF018
0C1FF830
0C1FF830
0E3FFC70
C63FFC63
663FFC67
673FFCE6
673FFCE6
733FFCE6
733FFCCE
733FFCCE
733FFCCE
73BFFCCE
733FFCCE
733FFCCE
733FFCCE
733FFCE6
673FFCE6
673FFCE6
673FFC67
C61FFC63
C61FF873
0C0FF030
0C07E030
1C07E018
0807E010
0007E000
0007E000
0007E000
0007E000
0007E000
0003C000
ENDCHAR
STARTCHAR 0030
ENCODING 48
SWIDTH 960 0
DWIDTH 32 0
BBX 32 31 0 -5
BITMAP
001FF800
007FFF00
01FFFF80
03FFFFC0
07FFFFF0
0FBFFDF0
1F1FF8F8
3E1FF87C
3C0FF03C
7807F01E
7807E01E
7803C00E
7007E00F
F00E700F
F00C300F
FFFC3FFF
FFFC3FFF
FFFE7FFF
FFFFFFFF
7FFDBFFE
7FF81FFE
7FF81FFE
3FF00FFC
3FE007FC
1FE007F8
0FC003F8
07E007F0
03FE7FE0
01FFFF80
00FFFF00
001FFC00
ENDCHAR
STARTCHAR 0031
ENCODING 49
SWIDTH 960 0
DWIDTH 32 0
BBX 31 33 1 -6
BITMAP
000FC000
000FE000
000FE000
000FE000
00CFE600
03CFE700
07CFE780
0FCFE7C0
1FCFE7E0
3F0FE3F0
3E0FE1F8
7C0FE0F8
7C0FE0FC
F80FE07C
F80FE07C
F00FE03C
F00FE03C
F00FE03E
F007C03E
F000003C
F800003C
F800007C
F800007C
7C0000FC
7C0000F8
3E0001F8
3F0003F0
1FC00FE0
0FF03FC0
07FFFF80
03FFFF00
00FFFE00
003FF000
ENDCHAR
STARTCHAR 0032
ENCODING 50
SWIDTH 960 0
DWIDTH 32 0
BBX 30 33 1 -6
BITMAP
00078000
000FC000
000FC000
000FC000
000FC000
00078000
00078000
78078078
FC0780FC
FF0301FC
FF0303FC
7F8307F8
1FC30FE0
07F33F80
007FF800
000FE000
000FC000
000FE000
007FF800
03F33F80
1FE30FF0
7FC307F8
FF8303FC
FE0781FC
FC0780FC
7807807C
00078000
0007C000
000FC000
000FC000
000FC000
0007C000
00078000
ENDCHAR
STARTCHAR 0033
ENCODING 51
SWIDTH 960 0
DWIDTH 32 0
BBX 32 31 0 -5
BITMAP
00008000
00008000
00018000
0001C000
0003C000
0003E000
0007E000
0007F000
000FF000
000FF800
003FFC00
1FFFFFF8
FFFFFFFF
3FFFFFFC
1FFFFFF8
0FFFFFF0
07FFFFE0
03FFFFC0
01FFFF80
00FFFF00
00FFFF00
00FFFF00
00FFFF80
00FFFF80
01FFFF80
01FFFF80
01FC3F80
01F00F80
01C003C0
010000C0
02000040
ENDCHAR
STARTCHAR 0034
ENCODING 52
SWIDTH 960 0
DWIDTH 32 0
BBX 32 23 0 -1
BITMAP
3FFFFFFC
3FFFFFFC
DFFFFFFB
EFFFFFF7
F7FFFFEF
FBFFFFDF
FDFFFFBF
FEFFFF7F
FF7FFEFF
FFBFFDFF
FFDFFBFF
FFEFF7FF
FFC7E3FF
FFBBDDFF
FF7C3EFF
FEFFFF7F
FDFFFFBF
FBFFFFDF
F7FFFFEF
EFFFFFF7
DFFFFFFB
3FFFFFFC
3FFFFFFC
ENDCHAR
STARTCHAR 0035
ENCODING 53
SWIDTH 960 0
DWIDTH 32 0
BBX 32 25 0 -3
BITMAP
00018780
0003E7C0
000C37C0
00199FC0
0067E7C0
00CFF3C0
039FF8C0
067FFE60
1CFFFF38
33FFFFCC
E7FFFFE7
87FFFFE1
07FFFFE0
07FFFFE0
07F81FE0
07F81FE0
07F81FE0
07F81FE0
07F81FE0
07F81FE0
07F81FE0
07F81FE0
07F81FE0
07F81FE0
03F81FC0
ENDCHAR
STARTCHAR 0036
ENCODING 54
SWIDTH 960 0
DWIDTH 32 0
BBX 32 33 0 -6
BITMAP
070003C0
0F8003E0
0FC007E0
0F8003E0
078003C0
00000000
3FE00FF0
7FF81FF8
FFF81FFC
FFF83FFC
FFD83FEC
FFD837EC
FFD837FE
FFD87FF6
FFD86FF6
FFD86FFF
FFD8FFFF
FFD87FFB
FFD81FF8
1FC01FFC
1FC03FFC
1FC03FFC
1FC03FFE
1FC007E0
1FC007E0
1FC007E0
1FC007E0
1FC007E0
1FC007E0
1FC007E0
1FC007E0
1FC007E0
0DC00760
ENDCHAR
STARTCHAR 0037
ENCODING 55
SWIDTH 960 0
DWIDTH 32 0
BBX 32 25 0 -2
BITMAP
003C0000
01FFC000
03E3E000
0FC1F800
1F80FC00
3F80FC00
3F80FE00
7F81FE00
7FC3FF00
70FF8700
E07F0300
C07F0380
C07F0180
C07F0380
E0FF0300
79F7CF00
7FC1FF00
7F80FF00
3F80FE00
3F80FC00
1F80FE03
0FC1FE0F
07FFE7FE
01FFC3F0
003E0000
ENDCHAR
STARTCHAR 0038
ENCODING 56
SWIDTH 960 0
DWIDTH 32 0
BBX 25 33 4 -6
BITMAP
FFFFFF00
FFFFFF80
E0000780
C0000380
C0000380
C0000380
C0000380
C0000380
E0000380
FFFFFF80
FFFFFF80
E1C3C380
E1C3C380
E1C3C380
E1C3C380
E1C3C380
FFFFFF80
FFFFFF80
FFFFFF80
E1C3C380
E1C3C380
E1C3C380
E1C3C380
FFFFFF80
FFFFFF80
FFFFFF80
E1C3C380
E1C3C380
E1C3C380
E1C3C380
FFFFFF80
FFFFFF80
FFFFFF00
ENDCHAR
STARTCHAR 0039
ENCODING 57
SWIDTH 960 0
DWIDTH 32 0
BBX 32 31 0 -5
BITMAP
40000000
E0000000
70000000
38000000
1C000000
0C7FFFFF
0E3FFFFE
063FFFFE
073FFFFC
033FFFFC
033FFFF8
03BFFFF8
039FFFF0
019FFFF0
019FFFE0
019FFFE0
01C00000
01C00000
01C00000
00C00000
00FFFFF8
00FFFFFC
00000000
00000000
00600060
01F001F8
01F801F8
01F801F8
01F801F8
01F000F8
00600060
ENDCHAR
STARTCHAR 003A
ENCODING 58
SWIDTH 960 0
DWIDTH 32 0
BBX 32 31 0 -5
BITMAP
00001FC0
00007FF0
0000FFF8
0001FFFC
0001FF1E
0003FE0E
0003FE0F
0003FE0F
0007FFBF
0003FFFF
0003FFFF
0003FFFF
0003FFFE
0009FFFE
001DFFFC
003CFFF8
007E7FF0
00FF1FC0
01FFC000
03FFE000
07FF0000
0FFF0000
1FF80000
3FF80000
7F800000
FF800000
FF800000
FF800000
FE000000
7E000000
3E000000
ENDCHAR
STARTCHAR 003B
ENCODING 59
SWIDTH 960 0
DWIDTH 32 0
BBX 32 32 0 -6
BITMAP
00018000
00018000
00018000
00018000
00018000
00018000
00018000
00018000
00018000
00018000
00018000
00018000
00018000
00018000
FFFFFFFF
FFFFFFFF
FFFFFFFF
00018000
00018000
00018000
00018000
00018000
00018000
00018000
00018000
00018000
00018000
00018000
00018000
00018000
00018000
00018000
ENDCHAR
STARTCHAR 003C
ENCODING 60
SWIDTH 960 0
DWIDTH 32 0
BBX 32 25 0 -2
BITMAP
00018000
0003C000
0003C000
0007E000
0007F000
000E7000
001E7800
001C3800
003C1C00
00381E00
00700E00
00F00F00
00E00700
01E00380
01C003C0
038001C0
078001E0
070000E0
0F000070
0E000078
1C000038
3C00003C
3800001C
7800000E
F000000F
ENDCHAR
STARTCHAR 003D
ENCODING 61
SWIDTH 960 0
DWIDTH 32 0
BBX 32 31 0 -5
BITMAP
001FF800
00700F00
01C00380
030000E0
06000030
08000010
19FFF018
3078780C
20783C04
60781C06
60781E02
40781E02
C0781C03
C0783C03
C0787001
C07FC001
C079C003
C079E003
C078F003
40787002
40783802
60783C06
20781C04
30780E0C
19FE0F98
0C000010
06000030
030000E0
01C00380
00780E00
001FF800
ENDCHAR
STARTCHAR 003E
ENCODING 62
SWIDTH 960 0
DWIDTH 32 0
BBX 32 31 0 -5
BITMAP
001FF800
00700E00
01C00380
030000E0
06000030
0C01E110
180E3F18
3038070C
20700304
60E00106
41C00102
41C00102
C3C00003
C3C00003
C3C00001
C3C00001
C3C00001
C3C00003
C3C00003
41C00002
41E00002
60E00186
20700304
303C0E0C
181FF818
0C008010
06000030
030000E0
01C00380
00700E00
001FF800
ENDCHAR
STARTCHAR 003F
ENCODING 63
SWIDTH 960 0
DWIDTH 32 0
BBX 32 31 0 -5
BITMAP
001FF800
007FFE00
01FFFF80
03FC1FC0
07E003E0
0F8001F0
1F0000F8
3E00007C
3C00003C
7800001E
7800001E
7000000E
7000000F
F000000F
F000000F
F000000F
F000000F
F000000F
7000000F
7000000E
7800001E
7800001E
3C00003C
3E00007C
1F000078
0F8001F0
07C003E0
03F81FC0
01FFFF80
007FFF00
001FF800
ENDCHAR
STARTCHAR 0040
ENCODING 64
SWIDTH 960 0
DWIDTH 32 0
BBX 32 31 0 -5
BITMAP
00008000
00018000
0001C000
0003C000
0003E000
0007E000
0007F000
000FF000
000FF800
001FF800
001FFC00
003FFC00
003FFE00
007FFE00
007FFF00
00FFFF00
00FFFF80
01FFFF80
01FFFFC0
03FFFFC0
03FFFFE0
07FFFFE0
07FFFFF0
0FFFFFF0
0FFFFFF8
1FFFFFF8
1FFFFFFC
3FFFFFFC
3FFFFFFE
7FFFFFFE
FFFFFFFF
ENDCHAR
STARTCHAR 0041
ENCODING 65
SWIDTH 960 0
DWIDTH 32 0
BBX 32 31 0 -5
BITMAP
80100000
C0080000
E00E0000
F80F0000
FC0F8000
FE0FE000
FF8FF000
FFCFF800
FFE7FE00
FFFBFF00
FFFDFF80
FFFE7FE0
FFFFBFF0
FFFFDFF8
FFFFE7FE
FFFFFBFF
FFFFE7FE
FFFFDFF8
FFFFBFF0
FFFE7FE0
FFFDFF80
FFFBFF00
FFE7FE00
FFCFF800
FF8FF000
FE0FE000
FC0F8000
F80F0000
E00E0000
C0080000
80100000
ENDCHAR
STARTCHAR 0042
ENCODING 66
SWIDTH 960 0
DWIDTH 32 0
BBX 28 33 2 -6
BITMAP
C00007F0
E00007F0
F80007F0
FE0007F0
FF0007F0
FFC007F0
FFF007F0
FFF807F0
FFFE07F0
FFFF07F0
FFFFC7F0
FFFFF7F0
FFFFFFF0
FFFFFFF0
FFFFFFF0
FFFFFFF0
FFFFFFF0
FFFFFFF0
FFFFFFF0
FFFFFFF0
FFFFFFF0
FFFFF7F0
FFFFC7F0
FFFF87F0
FFFE07F0
FFF807F0
FFF007F0
FFC007F0
FF0007F0
FE0007F0
F80007F0
E00007F0
C00007F0
ENDCHAR
STARTCHAR 0043
ENCODING 67
SWIDTH 960 0
DWIDTH 32 0
BBX 24 33 4 -6
BITMAP
FFC3FF
FFC3FF
FFC3FF
FFC3FF
FFC3FF
FFC3FF
FFC3FF
FFC3FF
FFC3FF
FFC3FF
FFC3FF
FFC3FF
FFC3FF
FFC3FF
FFC3FF
FFC3FF
FFC3FF
FFC3FF
FFC3FF
FFC3FF
FFC3FF
FFC3FF
FFC3FF
FFC3FF
FFC3FF
FFC3FF
FFC3FF
FFC3FF
FFC3FF
FFC3FF
FFC3FF
FFC3FF
FFC3FF
ENDCHAR
STARTCHAR 0044
ENCODING 68
SWIDTH 960 0
DWIDTH 32 0
BBX 28 33 2 -6
BITMAP
C0000000
E0000000
F8000000
FE000000
FF000000
FFC00000
FFE00000
FFF80000
FFFE0000
FFFF0000
FFFFC000
FFFFF000
FFFFF800
FFFFFE00
FFFFFF80
FFFFFFC0
FFFFFFF0
FFFFFFC0
FFFFFF80
FFFFFE00
FFFFF800
FFFFF000
FFFFC000
FFFF8000
FFFE0000
FFF80000
FFF00000
FFC00000
FF000000
FE000000
F8000000
E0000000
C0000000
ENDCHAR
STARTCHAR 0045
ENCODING 69
SWIDTH 960 0
DWIDTH 32 0
BBX 32 31 0 -5
BITMAP
001FF800
007FFE00
01FFFF80
03FFFFC0
07FFFFE0
0FFFFFF0
1FFFFFF8
3FFFFFFC
3FFFFFFC
7FF80FFE
7FE007FE
7FC003FE
7FC003FF
FF8001FF
FF8001FF
FF8001FF
FF8001FF
FF8001FF
7FC003FF
7FC003FE
7FE007FE
7FF00FFE
3FFFFFFC
3FFFFFFC
1FFFFFF8
0FFFFFF0
07FFFFE0
03FFFFC0
01FFFF80
007FFF00
001FF800
ENDCHAR
STARTCHAR 0046
ENCODING 70
SWIDTH 960 0
DWIDTH 32 0
BBX 32 31 0 -5
BITMAP
FFFFFFFF
FFFFFFFF
FFFFFFFF
FFFFFFFF
FFFFFFFF
FFFFFFFF
FFFFFFFF
FFFFFFFF
FFFFFFFF
FFFFFFFF
FFFFFFFF
FFFFFFFF
FFFFFFFF
FFFFFFFF
FFFFFFFF
FFFFFFFF
FFFFFFFF
FFFFFFFF
FFFFFFFF
FFFFFFFF
FFFFFFFF
FFFFFFFF
FFFFFFFF
FFFFFFFF
FFFFFFFF
FFFFFFFF
FFFFFFFF
FFFFFFFF
FFFFFFFF
FFFFFFFF
FFFFFFFF
ENDCHAR
STARTCHAR 0047
ENCODING 71
SWIDTH 960 0
DWIDTH 32 0
BBX 28 33 2 -6
BITMAP
FE000010
FE000070
FE0001F0
FE0003F0
FE000FF0
FE003FF0
FE007FF0
FE01FFF0
FE07FFF0
FE0FFFF0
FE3FFFF0
FE7FFFF0
FFFFFFF0
FFFFFFF0
FFFFFFF0
FFFFFFF0
FFFFFFF0
FFFFFFF0
FFFFFFF0
FFFFFFF0
FFFFFFF0
FEFFFFF0
FE3FFFF0
FE0FFFF0
FE07FFF0
FE01FFF0
FE007FF0
FE003FF0
FE000FF0
FE0007F0
FE0001F0
FE000070
FE000030
ENDCHAR
STARTCHAR 0048
ENCODING 72
SWIDTH 960 0
DWIDTH 32 0
BBX 32 31 0 -5
BITMAP
00000801
00001803
00003807
0000F80F
0001F83F
0003F87F
000FF8FF
001FFBFF
003FE7FF
00FFCFFF
01FFBFFF
03FE7FFF
0FFCFFFF
1FFBFFFF
3FE7FFFF
FFCFFFFF
3FE7FFFF
1FFBFFFF
0FFCFFFF
03FE7FFF
01FFBFFF
00FFCFFF
003FE7FF
001FFBFF
000FF8FF
0003F87F
0001F83F
0000F80F
00003807
00001803
00000801
ENDCHAR
STARTCHAR 0049
ENCODING 73
SWIDTH 960 0
DWIDTH 32 0
BBX 32 31 0 -5
BITMAP
E2000000
E3800000
E3C00000
E3C00000
E3C40000
E3C70000
E3C78000
E3C7E000
E3C7F000
E3C7FC00
E3C7FF00
E3C7FF80
E3C7FFE0
E3C7FFF8
E3C7FFFC
E3C7FFFF
E3C7FFFC
E3C7FFF8
E3C7FFE0
E3C7FF80
E3C7FF00
E3C7FC00
E3C7F800
E3C7E000
E3C78000
E3C70000
E3C40000
E3C00000
E3C00000
E3800000
E2000000
ENDCHAR
STARTCHAR 004A
ENCODING 74
SWIDTH 960 0
DWIDTH 32 0
BBX 32 31 0 -5
BITMAP
00008000
00018000
0003C000
0007E000
0007F000
000FF000
001FF800
003FFC00
003FFE00
007FFE00
00FFFF00
01FFFF80
01FFFFC0
03FFFFC0
07FFFFE0
0FFFFFF0
0FFFFFF8
1FFFFFF8
3FFFFFFC
7FFFFFFE
FFFFFFFF
00000000
00000000
FFFFFFFF
FFFFFFFF
FFFFFFFF
FFFFFFFF
FFFFFFFF
FFFFFFFF
FFFFFFFF
FFFFFFFF
ENDCHAR
STARTCHAR 004B
ENCODING 75
SWIDTH 960 0
DWIDTH 32 0
BBX 32 33 0 -6
BITMAP
00000010
00000070
000000F8
000000F0
000001F0
000001E0
000003E0
000007C0
000007C0
00000F80
1FFFFF80
3FFFFF00
7FFFFF00
7FFFFF00
BFFFFF80
01FFFFC0
000FFFC0
0001FFE0
0001FFE0
0003EFF0
0003C7F0
0007C3F8
000781FC
000F01FC
007F00FE
01FE007E
03FE003F
01FF001E
000F000E
000F0004
00070004
00030000
00020000
ENDCHAR
STARTCHAR 004C
ENCODING 76
SWIDTH 960 0
DWIDTH 32 0
BBX 27 33 3 -6
BITMAP
00000400
00000C00
00000C00
007E1E00
03FFFE00
0FFFFF00
1FFFFF00
3FFFFF00
7803FF80
4000FF80
8001FFC0
0003FFC0
0003FFE0
0007FE00
000F0000
00000000
00000000
00000000
001C0000
0FF80000
FFF80000
FFF00000
7FE00020
7FE000C0
7FF00380
3FFF7F00
3FFFFE00
1FFFFC00
1FFFF800
1E3FC000
0C000000
0C000000
04000000
ENDCHAR
STARTCHAR 004D
ENCODING 77
SWIDTH 960 0
DWIDTH 32 0
BBX 32 27 0 -3
BITMAP
003FC000
01FFF000
03FFFC00
07FFFE00
0FE07F00
1F801F80
3E000F80
3C0007C0
7C0003C0
780003E0
780001E0
F0003FFF
F0001FFE
F0000FFC
F00007F8
F00003F0
780001E0
780000C0
7C000080
3C000000
3E000000
1F801000
0FE07000
07FFF800
03FFF800
00FFF000
003F8000
ENDCHAR
STARTCHAR 004E
ENCODING 78
SWIDTH 960 0
DWIDTH 32 0
BBX 32 23 0 -1
BITMAP
00000018
0000003C
0000007E
000000FF
000001FF
000003FE
000007FC
3C000FF8
7E001FF0
FF003FE0
FF807FC0
7FC0FF80
3FE1FF00
1FF3FE00
0FFFFC00
07FFF800
03FFF000
01FFE000
00FFC000
007F8000
003F0000
001E0000
000C0000
ENDCHAR
STARTCHAR 004F
ENCODING 79
SWIDTH 960 0
DWIDTH 32 0
BBX 32 31 0 -5
BITMAP
7FC00000
7FF80000
FFFF0000
FFFF8000
7FFFE000
1FFFF800
007FFC00
000FFE00
0003FF00
3F00FF80
7FE07FC0
FFF83FC0
FFFC0FE0
7FFF0FF0
3FFF87F0
01FFC3F8
003FE1F8
001FE1FC
000FF0FC
0007F0FE
0003F87E
1F01F87E
3FC1FC7E
7FC0FC7E
FFE0FC3F
FFE0FC3F
FFE07E3F
7FE07E3F
7FC07E3F
3FC07C3F
1F003C1E
ENDCHAR
STARTCHAR 0050
ENCODING 80
SWIDTH 960 0
DWIDTH 32 0
BBX 30 33 1 -6
BITMAP
001FE000
007FF800
01FFFE00
03FFFF00
07FFFF80
07F03F80
0FC00FC0
0F8007C0
1F8007E0
1F0003E0
1F0003E0
1F0003E0
1F0003E0
1F0003E0
1F0003E0
FFFFFFFC
FFFFFFFC
FFFFFFFC
FFFFFFFC
FFFCFFFC
FFF87FFC
FFF87FFC
FFF87FFC
FFFCFFFC
FFFCFFFC
FFFCFFFC
FFFC7FFC
FFFC7FFC
FFF87FFC
FFFFFFFC
FFFFFFFC
FFFFFFFC
FFFFFFFC
ENDCHAR
STARTCHAR 0051
ENCODING 81
SWIDTH 960 0
DWIDTH 32 0
BBX 32 31 0 -5
BITMAP
03FFFFC0
03FFFFC0
03FFFFC0
03FFFFC0
03FFFFC0
03FFFFC0
03FFFFC0
03FFFFC0
03FFFFC0
03FFFFC0
03FFFFC0
00008000
00008000
00008000
00008000
00008000
01FFFFC0
01000040
01000040
01000040
FFFC3FFF
FFFC3FFF
FFFC3FFF
FFFC3FFF
FFFC3FFF
FFFC3FFF
FFFC3FFF
FFFC3FFF
FFFC3FFF
FFFC3FFF
FFFC3FFF
ENDCHAR
STARTCHAR 0052
ENCODING 82
SWIDTH 960 0
DWIDTH 32 0
BBX 32 19 0 1
BITMAP
000C0000
000E0000
00078000
01FFC780
0FFFE7F0
1FFFF7F8
3FFFE7FC
7F07C07E
7807001E
F80E000F
F00C000F
F000000F
F800000F
7800001F
7C00003E
3FFFFFFE
3FFFFFFC
0FFFFFF8
03FFFFE0
ENDCHAR
STARTCHAR 0053
ENCODING 83
SWIDTH 960 0
DWIDTH 32 0
BBX 32 27 0 -3
BITMAP
00000600
00000F00
00001F80
00003FC0
00007FE0
FFFCFFF0
FFFDFFF8
FFFBFFFC
FFF7FFFE
FFEFEFFF
FFEF8F1F
F80E0F06
FBFBEF79
F3FFEF7F
F7FFEF7F
F7FFEF7E
F7FFEF7E
EFFFEF7E
EFFFEF7C
EFFFEF7C
CFFFEF7C
DFFFEE7C
DFFFFFF8
DFFFFFF8
7FFFFFF8
3FFFFFF0
1FFFFFE0
ENDCHAR
STARTCHAR 0054
ENCODING 84
SWIDTH 960 0
DWIDTH 32 0
BBX 32 31 0 -5
BITMAP
001FF800
007FFE00
01FFFF80
03FFFFC0
07FE7FE0
0FE007F0
1FC003F8
3FC000FC
3FE0007C
7EF0007E
7C78003E
7C3C003E
F81E001F
F80F001F
F807801F
F803C01F
F801E01F
F800F01F
F800781F
7C003C3E
7C001E3E
7E000F7E
3E0007FC
3F0003FC
1FC001F8
0FE007F0
07FE3FE0
03FFFFC0
01FFFF80
007FFE00
001FF800
ENDCHAR
STARTCHAR 0055
ENCODING 85
SWIDTH 960 0
DWIDTH 32 0
BBX 32 29 0 -4
BITMAP
00008000
00018000
00038000
00078000
000F8000
001F8000
001F8000
003F8000
007F8000
FFFF8000
FFFF8000
FFFF8000
FFFF8000
FFFF8FFF
FFFF8FFF
FFFF8FFF
FFFF8000
FFFF8000
FFFF8000
FFFF8000
007F8000
003F8000
001F8000
000F8000
000F8000
00078000
00038000
00018000
00008000
ENDCHAR
STARTCHAR 0056
ENCODING 86
SWIDTH 960 0
DWIDTH 32 0
BBX 32 29 0 -4
BITMAP
0000C000
0001C000
0003C000
0003C000
0007C000
000FC000
001FC000
003FC000
007FC000
FFFFC0F0
FFFFC0F0
FFFFC0F0
FFFFC0F0
FFFFCFFF
FFFFCFFF
FFFFCFFF
FFFFC0F0
FFFFC0F0
FFFFC0F0
FFFFC0F0
007FC000
003FC000
001FC000
000FC000
0007C000
0003C000
0003C000
0001C000
0000C000
ENDCHAR
STARTCHAR 0057
ENCODING 87
SWIDTH 960 0
DWIDTH 32 0
BBX 32 31 0 -5
BITMAP
03C003E0
0FF00FF8
3FF81FFC
7FFC3FFE
7FFE7FFE
FFFEFFFF
FFFFFFFF
FFFFFFFF
FFFFFFFF
7FFFFFFF
7FFFFFFF
3FFFFFFE
3FFFFFFC
1FFFFFFC
0FFFFFF8
07FFFFF0
03FFFFE0
01FFFFC0
00FFFF80
007FFF00
003FFE00
001FFC00
000FF800
0007F000
0003E000
0003E000
0001C000
00018000
00008000
00008000
00008000
ENDCHAR
STARTCHAR 0058
ENCODING 88
SWIDTH 960 0
DWIDTH 32 0
BBX 26 33 3 -6
BITMAP
03800000
03800000
03800000
03800000
03800000
03800000
03800000
03800000
03800000
038E0000
039E0000
039E7000
039E79C0
039E79C0
E39E79C0
F3FFFFC0
F3FFFFC0
F3FFFFC0
F3FFFFC0
F3FFFFC0
F3FFFFC0
FFFFFFC0
FFFFFFC0
FFFFFFC0
7FFFFFC0
7FFFFFC0
3FFFFFC0
3FFFFFC0
1FFFFFC0
0FFFFFC0
0FFFFFC0
07FFFFC0
03FFFF80
ENDCHAR
STARTCHAR 0059
ENCODING 89
SWIDTH 960 0
DWIDTH 32 0
BBX 24 33 4 -6
BITMAP
001C00
003C00
003C00
073CE0
07BCE0
07BCE0
07BCE0
07BCE7
07BCE7
07BCE7
07BCE7
07BCE7
07BCE7
07BCE7
07BCE7
47BCE7
E7BDEF
E7FFFF
E7FFFF
E7FFFF
E7FFFF
E7FFFF
FFFFFF
FFFFFF
FFFFFF
7FFFFF
7FFFFF
3FFFFF
1FFFFF
1FFFFF
0FFFFF
07FFFF
07FFFE
ENDCHAR
STARTCHAR 005A
ENCODING 90
SWIDTH 960 0
DWIDTH 32 0
BBX 32 33 0 -6
BITMAP
00000020
00000030
00006038
0000E038
0001E01C
0003E21C
0007E31C
000FE38E
001FE38E
003FE18E
003FE1CE
FFFFE1CF
FFFFE1C7
FFFFE1C7
FFFFE1C7
FFFFE1C7
FFFFE1C7
FFFFE1C7
FFFFE1C7
FFFFE1C7
FFFFE1C7
FFFFE1CF
FFFFE1CE
007FE18E
003FE38E
001FE38E
000FE31C
0007E31C
0003E01C
0001E038
0000E038
00006030
00004000
ENDCHAR
STARTCHAR 005B
ENCODING 91
SWIDTH 960 0
DWIDTH 32 0
BBX 31 31 1 -5
BITMAP
80000000
E0000000
F8000000
FE000000
FF800000
FFE00000
FFF80000
FFFE0000
FFFF8000
FFFFE000
FFFFF800
FFFFFE00
FFFFFF80
FFFFFFE0
FFFFFFF8
FFFFFFFE
FFFFFFF8
FFFFFFE0
FFFFFF80
FFFFFE00
FFFFF800
FFFFE000
FFFF8000
FFFE0000
FFF80000
FFE00000
FF800000
FE000000
F8000000
E0000000
80000000
ENDCHAR
STARTCHAR 005C
ENCODING 92
SWIDTH 960 0
DWIDTH 32 0
BBX 32 31 0 -5
BITMAP
FFFFFFFF
7FFFFFFE
3FFFFFFE
3FFFFFFC
1FFFFFFC
1FFFFFF8
0FFFFFF8
0FFFFFF0
07FFFFF0
07FFFFE0
03FFFFE0
03FFFFC0
01FFFFC0
01FFFF80
00FFFF80
00FFFF00
007FFF00
007FFE00
003FFE00
003FFC00
001FFC00
001FF800
000FF800
000FF000
0007F000
0007E000
0003E000
0003C000
0001C000
00018000
00008000
ENDCHAR
STARTCHAR 005D
ENCODING 93
SWIDTH 960 0
DWIDTH 32 0
BBX 32 31 0 -5
BITMAP
00000003
0000000F
0000003F
000000FF
000003FF
00000FFF
00003FFF
0000FFFF
0003FFFF
000FFFFF
003FFFFF
00FFFFFF
03FFFFFF
0FFFFFFF
3FFFFFFF
FFFFFFFF
3FFFFFFF
0FFFFFFF
03FFFFFF
00FFFFFF
003FFFFF
000FFFFF
0003FFFF
0000FFFF
00003FFF
00000FFF
000003FF
000000FF
0000003F
0000000F
00000003
ENDCHAR
STARTCHAR 005E
ENCODING 94
SWIDTH 960 0
DWIDTH 32 0
BBX 32 11 0 5
BITMAP
04000020
08000010
18000018
3800001C
7FFFFFFE
FFFFFFFF
7FFFFFFE
3800000C
18000018
08000010
04000020
ENDCHAR
STARTCHAR 005F
ENCODING 95
SWIDTH 960 0
DWIDTH 32 0
BBX 12 33 10 -6
BITMAP
0600
0F00
1F80
3FC0
7760
8710
0700
0700
0700
0700
0700
0700
0700
0700
0700
0700
0700
0700
0700
0700
0700
0700
0700
0700
0700
0700
0700
8710
6760
3FC0
1F80
0F00
0600
ENDCHAR
STARTCHAR 0060
ENCODING 96
SWIDTH 960 0
DWIDTH 32 0
BBX 12 33 10 -6
BITMAP
0700
0700
0700
0700
0700
0700
0700
0700
0700
0700
0700
0700
0700
0700
0700
0700
0700
0700
0700
0700
0700
0700
0700
0700
0700
0700
0700
8710
7760
3FC0
1F80
0F00
0600
ENDCHAR
STARTCHAR 0061
ENCODING 97
SWIDTH 960 0
DWIDTH 32 0
BBX 32 18 0 2
BITMAP
00000010
00000030
003FC030
00FFF870
03FFFEF0
07FFFFF8
07FFFFF8
0FFFFFF8
1FFFFFF8
3E01FFFC
38007FFC
60001FFC
40003FFE
80007FFE
0000FFFE
0001FFFE
0001FFFF
0007FFFF
ENDCHAR
STARTCHAR 0062
ENCODING 98
SWIDTH 960 0
DWIDTH 32 0
BBX 32 18 0 2
BITMAP
04000000
04000000
0601FC00
0E0FFF00
0F3FFF80
0FFFFFC0
0FFFFFE0
1FFFFFF0
1FFFFFF8
1FFF8078
3FFE001C
3FFC0006
3FFC0002
3FFE0001
7FFF0000
7FFF8000
7FFFC000
FFFFE000
ENDCHAR
STARTCHAR 0063
ENCODING 99
SWIDTH 960 0
DWIDTH 32 0
BBX 32 34 0 -7
BITMAP
0007E000
0007F000
000FF000
000FF000
000FF000
000FF000
000FF000
000FF000
000FF000
000FF000
000FF000
000FF000
000FF000
000FF000
000FF000
300FF004
7C0FF03E
FF0FF0FF
FFCFF3FF
7FFFFFFE
7FFFFFFE
3FFFFFFC
1FFFFFF8
0FFFFFF0
07FFFFE0
03FFFFC0
01FFFF80
00FFFF00
007FFE00
003FFC00
001FF800
000FF000
0007E000
00018000
ENDCHAR
STARTCHAR 0064
ENCODING 100
SWIDTH 960 0
DWIDTH 32 0
BBX 32 31 0 -5
BITMAP
000000F0
000001F8
080003FC
3C0007FE
7E000FFF
7E001FFF
FF003FFE
FF007FFC
FF00FFF8
FF81FFF0
FF83FFE0
FF87FFC0
FFCFFF80
FFDFFF00
FFFFFE00
FFFFFC00
FFFFF800
FFFFF000
FFFFE000
FFFFC000
FFFF8000
FFFFC000
FFFFF000
FFFFFF00
FFFFFFC0
FFFFFFF0
FFFFFFF8
FFFFFFF8
7FFFFFF8
7FFFFFF0
3FFFFFE0
ENDCHAR
STARTCHAR 0065
ENCODING 101
SWIDTH 960 0
DWIDTH 32 0
BBX 31 31 1 -4
BITMAP
1E000000
3F000000
7F800020
FFC00078
FFE0007C
FFF000FE
FFF800FE
7FFC01FE
3FFE01FE
1FFF01FE
0FFF83FE
07FFC3FE
03FFE3FE
01FFF7FE
00FFFFFE
007FFFFE
003FFFFE
001FFFFE
000FFFFE
0007FFFE
0003FFFE
0003FFFE
001FFFFE
00FFFFFE
07FFFFFE
1FFFFFFE
3FFFFFFE
3FFFFFFE
3FFFFFFC
1FFFFFFC
0FFFFFF8
ENDCHAR
STARTCHAR 0066
ENCODING 102
SWIDTH 960 0
DWIDTH 32 0
BBX 32 29 0 -4
BITMAP
00078000
000FC000
001F8000
003F8000
007F8000
00FF0000
01FF0000
03FE0000
07FE0000
0FFC0000
1FFC0000
3FFFFFFE
7FFFFFFF
FFFFFFFF
FFFFFFFF
FFFFFFFF
7FFFFFFF
3FFFFFFE
1FFC0000
0FFE0000
07FE0000
03FF0000
01FF0000
00FF8000
007F8000
003F8000
001FC000
000F8000
00078000
ENDCHAR
STARTCHAR 0067
ENCODING 103
SWIDTH 960 0
DWIDTH 32 0
BBX 32 29 0 -4
BITMAP
0001E000
0001F000
0001F800
0001FC00
0001FE00
0000FF00
0000FF80
00007FC0
00007FE0
00003FF0
00003FF8
7FFFFFFC
FFFFFFFE
FFFFFFFF
FFFFFFFF
FFFFFFFF
FFFFFFFE
7FFFFFFC
00003FF8
00003FF0
00007FE0
00007FC0
0000FF80
0000FF00
0001FE00
0001FC00
0001F800
0001F000
0001E000
ENDCHAR
STARTCHAR 0068
ENCODING 104
SWIDTH 960 0
DWIDTH 32 0
BBX 32 33 0 -6
BITMAP
0003C000
0007E000
000FF000
001FF800
003FFC00
007FFE00
00FFFF00
01FFFF80
03FFFFC0
07FFFFE0
0FFFFFF0
1FFFFFF8
3FFFFFFC
7FFFFFFE
7FE7F7FF
FF87F1FF
7E07F07F
7807F01E
0007F000
0007F000
0007F000
0007F000
0007F000
0007F000
0007F000
0007F000
0007F000
0007F000
0007F000
0007F000
0007F000
0007F000
0007F000
ENDCHAR
STARTCHAR 0069
ENCODING 105
SWIDTH 960 0
DWIDTH 32 0
BBX 32 33 0 -6
BITMAP
1FFFFFC0
7FFFFFF0
7FFFFFF8
FFFFFFF8
FFFFFFF8
FFFFFFF8
FFFFFFF0
FFFFFF80
FFFFFE00
FFFFF000
FFFF8000
FFFF8000
FFFFC000
FFFFE000
FFFFF000
FFFFF800
FFFFFC00
FFFFFE00
FFDFFF00
FF8FFF80
FF87FFC0
FF83FFE0
FF01FFF0
FF00FFF8
FF007FFC
FE003FFE
FE001FFF
7C000FFF
3C0007FF
000003FE
000001FC
000000F8
00000020
ENDCHAR
STARTCHAR 006A
ENCODING 106
SWIDTH 960 0
DWIDTH 32 0
BBX 32 33 0 -6
BITMAP
03FFFFF8
0FFFFFFE
0FFFFFFF
1FFFFFFF
1FFFFFFF
0FFFFFFF
07FFFFFF
01FFFFFF
003FFFFF
0007FFFF
0001FFFF
0001FFFF
0003FFFF
0007FFFF
000FFFFF
001FFFFF
003FFFFF
007FFFFF
00FFFBFF
01FFF1FF
03FFE1FF
07FFC1FF
0FFF80FF
1FFF00FF
3FFE00FF
7FFC007F
FFF8007F
FFF0003E
7FE0001C
3FC00000
1F800000
0F000000
04000000
ENDCHAR
STARTCHAR 006B
ENCODING 107
SWIDTH 960 0
DWIDTH 32 0
BBX 32 27 0 -3
BITMAP
00002000
00003000
00003800
00003C00
00003E00
00003F00
0001FF80
007FFFC0
01FFFFE0
07FFFFF0
0FFFFFF8
1FFFFFFC
3FFFFFFE
3FFFFFFF
7FFFFFFE
7FC0FFF8
7F00FFE0
7C00FFC0
F800FF00
F001FC00
F001F800
E001E000
C0018000
C0010000
C0000000
80000000
80000000
ENDCHAR
STARTCHAR 006C
ENCODING 108
SWIDTH 1050 0
DWIDTH 35 0
BBX 35 31 0 -5
BITMAP
0001000000
0001000000
0003000000
0007000000
000F000000
001F000000
003F000000
007F000000
00FFFF0000
01FFFFE000
03FFFFF800
07FFFFFC00
0FFFFFFE00
1FFFFFFF00
3FFFFFFF80
FFFFFFFF80
7FFFFFFFC0
1FFFC0FFC0
07FFC01FE0
03FFC00FE0
00FFC007E0
003FC003E0
000FE001E0
0007E000E0
0001E000E0
0000600060
0000200060
0000000020
0000000020
0000000020
0000000020
ENDCHAR
STARTCHAR 006D
ENCODING 109
SWIDTH 960 0
DWIDTH 32 0
BBX 28 34 2 -7
BITMAP
00FFF000
00FFF000
00FFF000
00FFF000
00FFF000
00FFF000
00FFF000
00FFF000
00FFF000
00FFF000
00FFF000
00FFF000
00FFF000
00FFF000
00FFF000
00FFF000
00FFF000
00FFF000
FFFFFFF0
7FFFFFE0
3FFFFFC0
1FFFFF80
0FFFFF00
07FFFE00
03FFFC00
01FFFC00
00FFF800
007FF000
007FE000
003FC000
001F8000
000F0000
00060000
00020000
ENDCHAR
STARTCHAR 006E
ENCODING 110
SWIDTH 960 0
DWIDTH 32 0
BBX 32 27 0 -3
BITMAP
00020000
00040000
000C0000
001C0000
003C0000
007C0000
00FC0000
01FC0000
03FFFFFF
07FFFFFF
1FFFFFFF
3FFFFFFF
7FFFFFFF
FFFFFFFF
7FFFFFFF
3FFFFFFF
1FFFFFFF
07FFFFFF
03FFFFFF
01FC0000
00FC0000
007C0000
003C0000
001C0000
000C0000
00040000
00020000
ENDCHAR
STARTCHAR 006F
ENCODING 111
SWIDTH 960 0
DWIDTH 32 0
BBX 32 27 0 -3
BITMAP
00004000
00002000
00003000
00003800
00003C00
00003E00
00003F00
00003F80
FFFFFFE0
FFFFFFF0
FFFFFFF8
FFFFFFFC
FFFFFFFE
FFFFFFFF
FFFFFFFE
FFFFFFFC
FFFFFFF8
FFFFFFF0
FFFFFFC0
00003F80
00003F00
00003E00
00003C00
00003800
00003000
00002000
00004000
ENDCHAR
STARTCHAR 0070
ENCODING 112
SWIDTH 960 0
DWIDTH 32 0
BBX 28 33 2 -6
BITMAP
00060000
000F0000
000F8000
001FC000
003FE000
007FF000
00FFF000
01FFF800
03FFFC00
07FFFE00
0FFFFF00
1FFFFF80
3FFFFFC0
7FFFFFE0
FFFFFFF0
00FFF000
00FFF000
00FFF000
00FFF000
00FFF000
00FFF000
00FFF000
00FFF000
00FFF000
00FFF000
00FFF000
00FFF000
00FFF000
00FFF000
00FFF000
00FFF000
00FFF000
00FFF000
ENDCHAR
STARTCHAR 0071
ENCODING 113
SWIDTH 960 0
DWIDTH 32 0
BBX 29 33 2 -6
BITMAP
00001000
00003800
00003800
00007C00
00007C00
0000FE00
0000FE00
0001FF00
0003FF80
F803FF80
F807FFC0
F807FFC0
F80FFFE0
F80FFFE0
F81FFFF0
F8207C08
F8007C00
F8007C00
F8007C00
F8007C00
F8007C00
F8007C00
F8007C00
F8007C00
FC00FC00
FC00FC00
7E01F800
7F07F800
3FFFF000
3FFFE000
1FFFC000
07FF8000
03FE0000
ENDCHAR
STARTCHAR 0072
ENCODING 114
SWIDTH 960 0
DWIDTH 32 0
BBX 32 27 0 -3
BITMAP
00020000
000E0000
001E0000
007E0000
01FE0000
07FE0000
0FFFFF00
3FFFFFE0
FFFFFFF0
3FFFFFF8
0FFFFFFC
07FE01FE
01FE007E
007E003F
001E003F
000E001F
0002001F
0000001F
0000001F
0000003F
0000007E
000000FE
007FFFFC
007FFFF8
007FFFF0
007FFFE0
007FFF80
ENDCHAR
STARTCHAR 0073
ENCODING 115
SWIDTH 960 0
DWIDTH 32 0
BBX 32 25 0 -2
BITMAP
0007E000
007FFF00
03FFFFC0
07FFFFE0
1FFFFFF8
3FFFFFFC
3FFFFFFE
7FFFFFFE
7FFFFFFF
FFFFFFFF
FFFFFFFF
FFFFFFFF
FFFFFFFF
7FFFFFFE
7FFFFFFE
3FFFFFFC
1FFFFFF8
0FFFFFF0
07FFFFE0
01FFFF80
007FFC00
001F0000
001E0000
001C0000
00600000
ENDCHAR
STARTCHAR 0074
ENCODING 116
SWIDTH 960 0
DWIDTH 32 0
BBX 32 27 0 -3
BITMAP
7FFFFFFE
FFFFFFFF
FFFFFFFF
FFFFFFFF
FFFFFFFF
FFFFFFFF
FFFFFFFF
FFFFFFFF
FFFFFFFF
FFFFFFFF
FFFFFFFF
FFFFFFFF
FFFFFFFF
FFFFFFFF
FFFFFFFF
FFFFFFFF
FFFFFFFF
FFFFFFFF
FFFFFFFF
FFFFFFFF
7FFFFFFE
00078000
00070000
000E0000
000C0000
00080000
00100000
ENDCHAR
STARTCHAR 0075
ENCODING 117
SWIDTH 960 0
DWIDTH 32 0
BBX 32 25 0 -2
BITMAP
000FF000
00FFFF00
03FFFFC0
0FFFFFF0
1FFFFFF8
3FFFFFFC
7FFFFFFE
7FFFFFFE
FFFFFFFF
FFFFFFFF
FFFFFFFF
FFFFFFFF
FFFFFFFF
7FFFFFFE
7FFFFFFE
3FFFFFFC
1FFFFFF8
0FFFFFF0
07FFFFE0
01FFFF80
003FFE00
0000F800
00007800
00003C00
00000700
ENDCHAR
STARTCHAR 0076
ENCODING 118
SWIDTH 960 0
DWIDTH 32 0
BBX 32 27 0 -3
BITMAP
7FFFFFFE
FFFFFFFF
FFFFFFFF
FFFFFFFF
FFFFFFFF
FFFFFFFF
FFFFFFFF
FFFFFFFF
FFFFFFFF
FFFFFFFF
FFFFFFFF
FFFFFFFF
FFFFFFFF
FFFFFFFF
FFFFFFFF
FFFFFFFF
FFFFFFFF
FFFFFFFF
FFFFFFFF
FFFFFFFF
7FFFFFFE
0001E000
0000E000
00007000
00003000
00001800
00000800
ENDCHAR
STARTCHAR 0077
ENCODING 119
SWIDTH 960 0
DWIDTH 32 0
BBX 32 31 0 -5
BITMAP
0003C000
0007E000
0007E000
0107E0C0
079FF1E0
0FFFFFF0
0FFFFFF0
0FFFFFF0
07FFFFE0
03FFFFE0
07FFFFC0
07F81FC0
1FF00FF8
7FE007FE
FFE007FF
FFE007FF
FFE007FF
7FE007FE
1FF00FF8
07F81FC0
03FE7F80
03FFFFC0
07FFFFE0
0FFFFFF0
0FFFFFF0
0FFFE3F0
07C7E1F0
0307E0C0
0007E000
0007E000
0003C000
ENDCHAR
STARTCHAR 0078
ENCODING 120
SWIDTH 960 0
DWIDTH 32 0
BBX 32 27 0 -3
BITMAP
01800000
19800000
1F800000
1FF00000
FDF00000
F8F03000
78707860
38F878F0
7DF87FF0
7FE4FFE0
0FCFFFE0
0EFFFFE0
0C0FFFFF
0007E0FF
0007C0FF
0007C07E
000FC070
001FC0F0
001FE0FC
001FFBFE
0001FFFE
0001FFFE
0001FF8C
0001EF80
0001E7C0
0000C380
00000100
ENDCHAR
STARTCHAR 0079
ENCODING 121
SWIDTH 960 0
DWIDTH 32 0
BBX 32 29 0 -4
BITMAP
00080000
007F80E0
00FFE3FC
03FC13FA
03F807C0
07F807E3
0FF807FE
0FFC07FC
7FFE0FF8
FC3F1FF0
7C0F9FE0
3C07FFF0
1C03FE00
0001FC00
0003F800
0007FC00
000FFE00
003FBF00
007F1F80
00FE0FC0
01FC07E0
03F803F0
0FF001F8
1FE000FE
3FC0007F
3F80003E
1F00003C
0E000018
00000008
ENDCHAR
STARTCHAR 007A
ENCODING 122
SWIDTH 960 0
DWIDTH 32 0
BBX 32 31 0 -5
BITMAP
00001000
00002000
00006000
0000E000
0001E000
0001C000
0003C000
0003C000
0003C000
0003C000
00038000
00078000
00078007
030780FC
1FC78FF8
3FEFFFF0
7DFFFFE0
F0FFFE00
F0FFE000
FFFF0000
7FEF0000
7FBF8000
1E3FC000
007FC000
0071C000
0071C000
0071C000
007BC000
007F8000
007F0000
003E0000
ENDCHAR
STARTCHAR 007B
ENCODING 123
SWIDTH 960 0
DWIDTH 32 0
BBX 32 30 0 -4
BITMAP
000007E0
000007C0
000003C0
000003E0
000001F0
00000178
0000003C
0000001C
0000000E
0000000E
0000000E
00000007
00000007
00000007
00000007
E0000007
E0000007
E0000007
70000006
7000000E
7000000E
3800001C
3C00003C
1E000038
0F000078
078001F0
07E007E0
01FE7F80
00FFFF00
001FFC00
ENDCHAR
STARTCHAR 007C
ENCODING 124
SWIDTH 960 0
DWIDTH 32 0
BBX 32 30 0 -5
BITMAP
07E00000
03C00000
07C00000
0F400000
1E400000
3C000000
38000000
78000000
70000000
70000000
60000000
E0000000
E0000000
E0000000
E0000007
E0000007
E0000007
70000006
7000000E
7000000E
3800001C
3C00003C
1C000038
0F000078
0F8001F0
07E003E0
01FC3F80
00FFFF00
003FFC00
00008000
ENDCHAR
STARTCHAR 007D
ENCODING 125
SWIDTH 480 0
DWIDTH 16 0
BBX 0 0 0 0
BITMAP
ENDCHAR
STARTCHAR 007E
ENCODING 126
SWIDTH 480 0
DWIDTH 16 0
BBX 0 0 0 0
BITMAP
ENDCHAR
STARTCHAR 00A0
ENCODING 160
SWIDTH 240 0
DWIDTH 8 0
BBX 0 0 0 0
BITMAP
ENDCHAR
STARTCHAR 00A1
ENCODING 161
SWIDTH 330 0
DWIDTH 11 0
BBX 0 0 0 0
BITMAP
ENDCHAR
STARTCHAR 00A2
ENCODING 162
SWIDTH 540 0
DWIDTH 18 0
BBX 0 0 0 0
BITMAP
ENDCHAR
STARTCHAR 00A3
ENCODING 163
SWIDTH 480 0
DWIDTH 16 0
BBX 0 0 0 0
BITMAP
ENDCHAR
STARTCHAR 00A4
ENCODING 164
SWIDTH 480 0
DWIDTH 16 0
BBX 0 0 0 0
BITMAP
ENDCHAR
STARTCHAR 00A5
ENCODING 165
SWIDTH 600 0
DWIDTH 20 0
BBX 0 0 0 0
BITMAP
ENDCHAR
STARTCHAR 00A6
ENCODING 166
SWIDTH 480 0
DWIDTH 16 0
BBX 0 0 0 0
BITMAP
ENDCHAR
STARTCHAR 00A7
ENCODING 167
SWIDTH 480 0
DWIDTH 16 0
BBX 0 0 0 0
BITMAP
ENDCHAR
STARTCHAR 00A8
ENCODING 168
SWIDTH 510 0
DWIDTH 17 0
BBX 0 0 0 0
BITMAP
ENDCHAR
STARTCHAR 00A9
ENCODING 169
SWIDTH 810 0
DWIDTH 27 0
BBX 0 0 0 0
BITMAP
ENDCHAR
STARTCHAR 00AA
ENCODING 170
SWIDTH 300 0
DWIDTH 10 0
BBX 0 0 0 0
BITMAP
ENDCHAR
STARTCHAR 00AB
ENCODING 171
SWIDTH 450 0
DWIDTH 15 0
BBX 0 0 0 0
BITMAP
ENDCHAR
STARTCHAR 00AC
ENCODING 172
SWIDTH 480 0
DWIDTH 16 0
BBX 0 0 0 0
BITMAP
ENDCHAR
STARTCHAR 00AD
ENCODING 173
SWIDTH 960 0
DWIDTH 32 0
BBX 32 31 0 -5
BITMAP
001FF800
007FFF00
01E00780
038001E0
070000F0
0E000030
1F000C18
39801C1C
30C01C0C
70603C06
60307C06
603FFC06
603FFC03
C03FFC03
C03FFC03
C03FFC03
C03FFC03
C03FFC03
603FFC03
6000FC06
60007C06
70003D06
30001D0C
38000D9C
1C000CD8
0E000070
070000F0
038001C0
01E00780
007FFF00
001FF800
ENDCHAR
STARTCHAR 00AE
ENCODING 174
SWIDTH 810 0
DWIDTH 27 0
BBX 0 0 0 0
BITMAP
ENDCHAR
STARTCHAR 00AF
ENCODING 175
SWIDTH 330 0
DWIDTH 11 0
BBX 0 0 0 0
BITMAP
ENDCHAR
STARTCHAR 00B0
ENCODING 176
SWIDTH 330 0
DWIDTH 11 0
BBX 0 0 0 0
BITMAP
ENDCHAR
STARTCHAR 00B1
ENCODING 177
SWIDTH 480 0
DWIDTH 16 0
BBX 0 0 0 0
BITMAP
ENDCHAR
STARTCHAR 00B2
ENCODING 178
SWIDTH 480 0
DWIDTH 16 0
BBX 0 0 0 0
BITMAP
ENDCHAR
STARTCHAR 00B3
ENCODING 179
SWIDTH 480 0
DWIDTH 16 0
BBX 0 0 0 0
BITMAP
ENDCHAR
STARTCHAR 00B4
ENCODING 180
SWIDTH 510 0
DWIDTH 17 0
BBX 0 0 0 0
BITMAP
ENDCHAR
STARTCHAR 00B5
ENCODING 181
SWIDTH 570 0
DWIDTH 19 0
BBX 0 0 0 0
BITMAP
ENDCHAR
STARTCHAR 00B6
ENCODING 182
SWIDTH 510 0
DWIDTH 17 0
BBX 0 0 0 0
BITMAP
ENDCHAR
STARTCHAR 00B7
ENCODING 183
SWIDTH 240 0
DWIDTH 8 0
BBX 0 0 0 0
BITMAP
ENDCHAR
STARTCHAR 00B8
ENCODING 184
SWIDTH 510 0
DWIDTH 17 0
BBX 0 0 0 0
BITMAP
ENDCHAR
STARTCHAR 00B9
ENCODING 185
SWIDTH 480 0
DWIDTH 16 0
BBX 0 0 0 0
BITMAP
ENDCHAR
STARTCHAR 00BA
ENCODING 186
SWIDTH 360 0
DWIDTH 12 0
BBX 0 0 0 0
BITMAP
ENDCHAR
STARTCHAR 00BB
ENCODING 187
SWIDTH 450 0
DWIDTH 15 0
BBX 0 0 0 0
BITMAP
ENDCHAR
STARTCHAR 00BC
ENCODING 188
SWIDTH 840 0
DWIDTH 28 0
BBX 0 0 0 0
BITMAP
ENDCHAR
STARTCHAR 00BD
ENCODING 189
SWIDTH 960 0
DWIDTH 32 0
BBX 0 0 0 0
BITMAP
ENDCHAR
STARTCHAR 00BE
ENCODING 190
SWIDTH 840 0
DWIDTH 28 0
BBX 0 0 0 0
BITMAP
ENDCHAR
STARTCHAR 00BF
ENCODING 191
SWIDTH 360 0
DWIDTH 12 0
BBX 0 0 0 0
BITMAP
ENDCHAR
STARTCHAR 00C0
ENCODING 192
SWIDTH 750 0
DWIDTH 25 0
BBX 0 0 0 0
BITMAP
ENDCHAR
STARTCHAR 00C1
ENCODING 193
SWIDTH 750 0
DWIDTH 25 0
BBX 0 0 0 0
BITMAP
ENDCHAR
STARTCHAR 00C2
ENCODING 194
SWIDTH 750 0
DWIDTH 25 0
BBX 0 0 0 0
BITMAP
ENDCHAR
STARTCHAR 00C3
ENCODING 195
SWIDTH 750 0
DWIDTH 25 0
BBX 0 0 0 0
BITMAP
ENDCHAR
STARTCHAR 00C4
ENCODING 196
SWIDTH 750 0
DWIDTH 25 0
BBX 0 0 0 0
BITMAP
ENDCHAR
STARTCHAR 00C5
ENCODING 197
SWIDTH 750 0
DWIDTH 25 0
BBX 0 0 0 0
BITMAP
ENDCHAR
STARTCHAR 00C6
ENCODING 198
SWIDTH 1020 0
DWIDTH 34 0
BBX 0 0 0 0
BITMAP
ENDCHAR
STARTCHAR 00C7
ENCODING 199
SWIDTH 690 0
DWIDTH 23 0
BBX 0 0 0 0
BITMAP
ENDCHAR
STARTCHAR 00C8
ENCODING 200
SWIDTH 570 0
DWIDTH 19 0
BBX 0 0 0 0
BITMAP
ENDCHAR
STARTCHAR 00C9
ENCODING 201
SWIDTH 570 0
DWIDTH 19 0
BBX 0 0 0 0
BITMAP
ENDCHAR
STARTCHAR 00CA
ENCODING 202
SWIDTH 570 0
DWIDTH 19 0
BBX 0 0 0 0
BITMAP
ENDCHAR
STARTCHAR 00CB
ENCODING 203
SWIDTH 570 0
DWIDTH 19 0
BBX 0 0 0 0
BITMAP
ENDCHAR
STARTCHAR 00CC
ENCODING 204
SWIDTH 330 0
DWIDTH 11 0
BBX 0 0 0 0
BITMAP
ENDCHAR
STARTCHAR 00CD
ENCODING 205
SWIDTH 330 0
DWIDTH 11 0
BBX 0 0 0 0
BITMAP
ENDCHAR
STARTCHAR 00CE
ENCODING 206
SWIDTH 330 0
DWIDTH 11 0
BBX 0 0 0 0
BITMAP
ENDCHAR
STARTCHAR 00CF
ENCODING 207
SWIDTH 330 0
DWIDTH 11 0
BBX 0 0 0 0
BITMAP
ENDCHAR
STARTCHAR 00D0
ENCODING 208
SWIDTH 720 0
DWIDTH 24 0
BBX 0 0 0 0
BITMAP
ENDCHAR
STARTCHAR 00D1
ENCODING 209
SWIDTH 750 0
DWIDTH 25 0
BBX 0 0 0 0
BITMAP
ENDCHAR
STARTCHAR 00D2
ENCODING 210
SWIDTH 780 0
DWIDTH 26 0
BBX 0 0 0 0
BITMAP
ENDCHAR
STARTCHAR 00D3
ENCODING 211
SWIDTH 780 0
DWIDTH 26 0
BBX 0 0 0 0
BITMAP
ENDCHAR
STARTCHAR 00D4
ENCODING 212
SWIDTH 780 0
DWIDTH 26 0
BBX 0 0 0 0
BITMAP
ENDCHAR
STARTCHAR 00D5
ENCODING 213
SWIDTH 780 0
DWIDTH 26 0
BBX 0 0 0 0
BITMAP
ENDCHAR
STARTCHAR 00D6
ENCODING 214
SWIDTH 780 0
DWIDTH 26 0
BBX 0 0 0 0
BITMAP
ENDCHAR
STARTCHAR 00D7
ENCODING 215
SWIDTH 480 0
DWIDTH 16 0
BBX 0 0 0 0
BITMAP
ENDCHAR
STARTCHAR 00D8
ENCODING 216
SWIDTH 780 0
DWIDTH 26 0
BBX 0 0 0 0
BITMAP
ENDCHAR
STARTCHAR 00D9
ENCODING 217
SWIDTH 720 0
DWIDTH 24 0
BBX 0 0 0 0
BITMAP
ENDCHAR
STARTCHAR 00DA
ENCODING 218
SWIDTH 720 0
DWIDTH 24 0
BBX 0 0 0 0
BITMAP
ENDCHAR
STARTCHAR 00DB
ENCODING 219
SWIDTH 720 0
DWIDTH 24 0
BBX 0 0 0 0
BITMAP
ENDCHAR
STARTCHAR 00DC
ENCODING 220
SWIDTH 720 0
DWIDTH 24 0
BBX 0 0 0 0
BITMAP
ENDCHAR
STARTCHAR 00DD
ENCODING 221
SWIDTH 600 0
DWIDTH 20 0
BBX 0 0 0 0
BITMAP
ENDCHAR
STARTCHAR 00DE
ENCODING 222
SWIDTH 540 0
DWIDTH 18 0
BBX 0 0 0 0
BITMAP
ENDCHAR
STARTCHAR 00DF
ENCODING 223
SWIDTH 600 0
DWIDTH 20 0
BBX 0 0 0 0
BITMAP
ENDCHAR
STARTCHAR 00E0
ENCODING 224
SWIDTH 450 0
DWIDTH 15 0
BBX 0 0 0 0
BITMAP
ENDCHAR
STARTCHAR 00E1
ENCODING 225
SWIDTH 450 0
DWIDTH 15 0
BBX 0 0 0 0
BITMAP
ENDCHAR
STARTCHAR 00E2
ENCODING 226
SWIDTH 450 0
DWIDTH 15 0
BBX 0 0 0 0
BITMAP
ENDCHAR
STARTCHAR 00E3
ENCODING 227
SWIDTH 450 0
DWIDTH 15 0
BBX 0 0 0 0
BITMAP
ENDCHAR
STARTCHAR 00E4
ENCODING 228
SWIDTH 450 0
DWIDTH 15 0
BBX 0 0 0 0
BITMAP
ENDCHAR
STARTCHAR 00E5
ENCODING 229
SWIDTH 450 0
DWIDTH 15 0
BBX 0 0 0 0
BITMAP
ENDCHAR
STARTCHAR 00E6
ENCODING 230
SWIDTH 690 0
DWIDTH 23 0
BBX 0 0 0 0
BITMAP
ENDCHAR
STARTCHAR 00E7
ENCODING 231
SWIDTH 450 0
DWIDTH 15 0
BBX 0 0 0 0
BITMAP
ENDCHAR
STARTCHAR 00E8
ENCODING 232
SWIDTH 450 0
DWIDTH 15 0
BBX 0 0 0 0
BITMAP
ENDCHAR
STARTCHAR 00E9
ENCODING 233
SWIDTH 450 0
DWIDTH 15 0
BBX 0 0 0 0
BITMAP
ENDCHAR
STARTCHAR 00EA
ENCODING 234
SWIDTH 450 0
DWIDTH 15 0
BBX 0 0 0 0
BITMAP
ENDCHAR
STARTCHAR 00EB
ENCODING 235
SWIDTH 450 0
DWIDTH 15 0
BBX 0 0 0 0
BITMAP
ENDCHAR
STARTCHAR 00EC
ENCODING 236
SWIDTH 240 0
DWIDTH 8 0
BBX 0 0 0 0
BITMAP
ENDCHAR
STARTCHAR 00ED
ENCODING 237
SWIDTH 240 0
DWIDTH 8 0
BBX 0 0 0 0
BITMAP
ENDCHAR
STARTCHAR 00EE
ENCODING 238
SWIDTH 240 0
DWIDTH 8 0
BBX 0 0 0 0
BITMAP
ENDCHAR
STARTCHAR 00EF
ENCODING 239
SWIDTH 240 0
DWIDTH 8 0
BBX 0 0 0 0
BITMAP
ENDCHAR
STARTCHAR 00F0
ENCODING 240
SWIDTH 540 0
DWIDTH 18 0
BBX 0 0 0 0
BITMAP
ENDCHAR
STARTCHAR 00F1
ENCODING 241
SWIDTH 540 0
DWIDTH 18 0
BBX 0 0 0 0
BITMAP
ENDCHAR
STARTCHAR 00F2
ENCODING 242
SWIDTH 480 0
DWIDTH 16 0
BBX 0 0 0 0
BITMAP
ENDCHAR
STARTCHAR 00F3
ENCODING 243
SWIDTH 480 0
DWIDTH 16 0
BBX 0 0 0 0
BITMAP
ENDCHAR
STARTCHAR 00F4
ENCODING 244
SWIDTH 480 0
DWIDTH 16 0
BBX 0 0 0 0
BITMAP
ENDCHAR
STARTCHAR 00F5
ENCODING 245
SWIDTH 480 0
DWIDTH 16 0
BBX 0 0 0 0
BITMAP
ENDCHAR
STARTCHAR 00F6
ENCODING 246
SWIDTH 480 0
DWIDTH 16 0
BBX 0 0 0 0
BITMAP
ENDCHAR
STARTCHAR 00F7
ENCODING 247
SWIDTH 480 0
DWIDTH 16 0
BBX 0 0 0 0
BITMAP
ENDCHAR
STARTCHAR 00F8
ENCODING 248
SWIDTH 480 0
DWIDTH 16 0
BBX 0 0 0 0
BITMAP
ENDCHAR
STARTCHAR 00F9
ENCODING 249
SWIDTH 510 0
DWIDTH 17 0
BBX 0 0 0 0
BITMAP
ENDCHAR
STARTCHAR 00FA
ENCODING 250
SWIDTH 510 0
DWIDTH 17 0
BBX 0 0 0 0
BITMAP
ENDCHAR
STARTCHAR 00FB
ENCODING 251
SWIDTH 510 0
DWIDTH 17 0
BBX 0 0 0 0
BITMAP
ENDCHAR
STARTCHAR 00FC
ENCODING 252
SWIDTH 510 0
DWIDTH 17 0
BBX 0 0 0 0
BITMAP
ENDCHAR
STARTCHAR 00FD
ENCODING 253
SWIDTH 420 0
DWIDTH 14 0
BBX 0 0 0 0
BITMAP
ENDCHAR
STARTCHAR 00FE
ENCODING 254
SWIDTH 480 0
DWIDTH 16 0
BBX 0 0 0 0
BITMAP
ENDCHAR
STARTCHAR 00FF
ENCODING 255
SWIDTH 420 0
DWIDTH 14 0
BBX 0 0 0 0
BITMAP
ENDCHAR
STARTCHAR 0131
ENCODING 305
SWIDTH 240 0
DWIDTH 8 0
BBX 0 0 0 0
BITMAP
ENDCHAR
STARTCHAR 02C6
ENCODING 710
SWIDTH 510 0
DWIDTH 17 0
BBX 0 0 0 0
BITMAP
ENDCHAR
STARTCHAR 02C7
ENCODING 711
SWIDTH 510 0
DWIDTH 17 0
BBX 0 0 0 0
BITMAP
ENDCHAR
STARTCHAR 02C9
ENCODING 713
SWIDTH 510 0
DWIDTH 17 0
BBX 0 0 0 0
BITMAP
ENDCHAR
STARTCHAR 02D8
ENCODING 728
SWIDTH 510 0
DWIDTH 17 0
BBX 0 0 0 0
BITMAP
ENDCHAR
STARTCHAR 02D9
ENCODING 729
SWIDTH 510 0
DWIDTH 17 0
BBX 0 0 0 0
BITMAP
ENDCHAR
STARTCHAR 02DA
ENCODING 730
SWIDTH 510 0
DWIDTH 17 0
BBX 0 0 0 0
BITMAP
ENDCHAR
STARTCHAR 02DB
ENCODING 731
SWIDTH 510 0
DWIDTH 17 0
BBX 0 0 0 0
BITMAP
ENDCHAR
STARTCHAR 02DC
ENCODING 732
SWIDTH 510 0
DWIDTH 17 0
BBX 0 0 0 0
BITMAP
ENDCHAR
STARTCHAR 02DD
ENCODING 733
SWIDTH 510 0
DWIDTH 17 0
BBX 0 0 0 0
BITMAP
ENDCHAR
STARTCHAR 037E
ENCODING 894
SWIDTH 960 0
DWIDTH 32 0
BBX 32 32 0 -6
BITMAP
00018000
00018000
00018000
00018000
00018000
00018000
00018000
00018000
00018000
00018000
00018000
00018000
00018000
00018000
FFFFFFFF
FFFFFFFF
FFFFFFFF
00018000
00018000
00018000
00018000
00018000
00018000
00018000
00018000
00018000
00018000
00018000
00018000
00018000
00018000
00018000
ENDCHAR
STARTCHAR 2013
ENCODING 8211
SWIDTH 540 0
DWIDTH 18 0
BBX 0 0 0 0
BITMAP
ENDCHAR
STARTCHAR 2014
ENCODING 8212
SWIDTH 990 0
DWIDTH 33 0
BBX 0 0 0 0
BITMAP
ENDCHAR
STARTCHAR 2018
ENCODING 8216
SWIDTH 270 0
DWIDTH 9 0
BBX 0 0 0 0
BITMAP
ENDCHAR
STARTCHAR 2019
ENCODING 8217
SWIDTH 270 0
DWIDTH 9 0
BBX 0 0 0 0
BITMAP
ENDCHAR
STARTCHAR 201A
ENCODING 8218
SWIDTH 270 0
DWIDTH 9 0
BBX 0 0 0 0
BITMAP
ENDCHAR
STARTCHAR 201C
ENCODING 8220
SWIDTH 450 0
DWIDTH 15 0
BBX 0 0 0 0
BITMAP
ENDCHAR
STARTCHAR 201D
ENCODING 8221
SWIDTH 450 0
DWIDTH 15 0
BBX 0 0 0 0
BITMAP
ENDCHAR
STARTCHAR 201E
ENCODING 8222
SWIDTH 450 0
DWIDTH 15 0
BBX 0 0 0 0
BITMAP
ENDCHAR
STARTCHAR 2020
ENCODING 8224
SWIDTH 480 0
DWIDTH 16 0
BBX 0 0 0 0
BITMAP
ENDCHAR
STARTCHAR 2021
ENCODING 8225
SWIDTH 480 0
DWIDTH 16 0
BBX 0 0 0 0
BITMAP
ENDCHAR
STARTCHAR 2022
ENCODING 8226
SWIDTH 510 0
DWIDTH 17 0
BBX 0 0 0 0
BITMAP
ENDCHAR
STARTCHAR 2026
ENCODING 8230
SWIDTH 990 0
DWIDTH 33 0
BBX 0 0 0 0
BITMAP
ENDCHAR
STARTCHAR 2039
ENCODING 8249
SWIDTH 300 0
DWIDTH 10 0
BBX 0 0 0 0
BITMAP
ENDCHAR
STARTCHAR 203A
ENCODING 8250
SWIDTH 300 0
DWIDTH 10 0
BBX 0 0 0 0
BITMAP
ENDCHAR
STARTCHAR 2044
ENCODING 8260
SWIDTH 180 0
DWIDTH 6 0
BBX 0 0 0 0
BITMAP
ENDCHAR
STARTCHAR 20A3
ENCODING 8355
SWIDTH 480 0
DWIDTH 16 0
BBX 0 0 0 0
BITMAP
ENDCHAR
STARTCHAR 20A4
ENCODING 8356
SWIDTH 480 0
DWIDTH 16 0
BBX 0 0 0 0
BITMAP
ENDCHAR
STARTCHAR 20A7
ENCODING 8359
SWIDTH 990 0
DWIDTH 33 0
BBX 0 0 0 0
BITMAP
ENDCHAR
STARTCHAR 20AC
ENCODING 8364
SWIDTH 480 0
DWIDTH 16 0
BBX 0 0 0 0
BITMAP
ENDCHAR
STARTCHAR 2116
ENCODING 8470
SWIDTH 1110 0
DWIDTH 37 0
BBX 0 0 0 0
BITMAP
ENDCHAR
STARTCHAR 2122
ENCODING 8482
SWIDTH 720 0
DWIDTH 24 0
BBX 0 0 0 0
BITMAP
ENDCHAR
STARTCHAR 2202
ENCODING 8706
SWIDTH 480 0
DWIDTH 16 0
BBX 0 0 0 0
BITMAP
ENDCHAR
STARTCHAR 2206
ENCODING 8710
SWIDTH 510 0
DWIDTH 17 0
BBX 0 0 0 0
BITMAP
ENDCHAR
STARTCHAR 220F
ENCODING 8719
SWIDTH 720 0
DWIDTH 24 0
BBX 0 0 0 0
BITMAP
ENDCHAR
STARTCHAR 2211
ENCODING 8721
SWIDTH 570 0
DWIDTH 19 0
BBX 0 0 0 0
BITMAP
ENDCHAR
STARTCHAR 2212
ENCODING 8722
SWIDTH 480 0
DWIDTH 16 0
BBX 0 0 0 0
BITMAP
ENDCHAR
STARTCHAR 2215
ENCODING 8725
SWIDTH 180 0
DWIDTH 6 0
BBX 0 0 0 0
BITMAP
ENDCHAR
STARTCHAR 2219
ENCODING 8729
SWIDTH 240 0
DWIDTH 8 0
BBX 0 0 0 0
BITMAP
ENDCHAR
STARTCHAR 221A
ENCODING 8730
SWIDTH 480 0
DWIDTH 16 0
BBX 0 0 0 0
BITMAP
ENDCHAR
STARTCHAR 221E
ENCODING 8734
SWIDTH 480 0
DWIDTH 16 0
BBX 0 0 0 0
BITMAP
ENDCHAR
STARTCHAR 222B
ENCODING 8747
SWIDTH 330 0
DWIDTH 11 0
BBX 0 0 0 0
BITMAP
ENDCHAR
STARTCHAR 2248
ENCODING 8776
SWIDTH 480 0
DWIDTH 16 0
BBX 0 0 0 0
BITMAP
ENDCHAR
STARTCHAR 2264
ENCODING 8804
SWIDTH 480 0
DWIDTH 16 0
BBX 0 0 0 0
BITMAP
ENDCHAR
STARTCHAR 2265
ENCODING 8805
SWIDTH 480 0
DWIDTH 16 0
BBX 0 0 0 0
BITMAP
ENDCHAR
STARTCHAR F001
ENCODING 61441
SWIDTH 510 0
DWIDTH 17 0
BBX 0 0 0 0
BITMAP
ENDCHAR
STARTCHAR F002
ENCODING 61442
SWIDTH 510 0
DWIDTH 17 0
BBX 0 0 0 0
BITMAP
ENDCHAR
STARTCHAR FB01
ENCODING 64257
SWIDTH 510 0
DWIDTH 17 0
BBX 0 0 0 0
BITMAP
ENDCHAR
STARTCHAR FB02
ENCODING 64258
SWIDTH 510 0
DWIDTH 17 0
BBX 0 0 0 0
BITMAP
ENDCHAR
ENDFONT
